<mxfile host="Electron" agent="Mozilla/5.0 (Windows NT 10.0; Win64; x64) AppleWebKit/537.36 (KHTML, like Gecko) draw.io/28.0.6 Chrome/138.0.7204.100 Electron/37.2.3 Safari/537.36" version="28.0.6">
  <diagram name="페이지-1" id="w4fXAjA0Xio83mQyXmqb">
    <mxGraphModel dx="1147" dy="624" grid="1" gridSize="10" guides="1" tooltips="1" connect="1" arrows="1" fold="1" page="1" pageScale="1" pageWidth="827" pageHeight="1169" math="0" shadow="0">
      <root>
        <mxCell id="0" />
        <mxCell id="1" parent="0" />
        <mxCell id="iTpng_MeSk9vudYiRkz9-1" value="회원가입" style="rounded=0;whiteSpace=wrap;html=1;" parent="1" vertex="1">
          <mxGeometry x="50" y="30" width="120" height="60" as="geometry" />
        </mxCell>
        <mxCell id="iTpng_MeSk9vudYiRkz9-5" value="" style="edgeStyle=orthogonalEdgeStyle;rounded=0;orthogonalLoop=1;jettySize=auto;html=1;strokeWidth=2;" parent="1" source="iTpng_MeSk9vudYiRkz9-3" target="iTpng_MeSk9vudYiRkz9-4" edge="1">
          <mxGeometry relative="1" as="geometry" />
        </mxCell>
        <mxCell id="iTpng_MeSk9vudYiRkz9-3" value="시작" style="strokeWidth=2;html=1;shape=mxgraph.flowchart.terminator;whiteSpace=wrap;" parent="1" vertex="1">
          <mxGeometry x="300" y="30" width="100" height="60" as="geometry" />
        </mxCell>
        <mxCell id="iTpng_MeSk9vudYiRkz9-7" value="" style="edgeStyle=orthogonalEdgeStyle;rounded=0;orthogonalLoop=1;jettySize=auto;html=1;exitX=0.51;exitY=0.883;exitDx=0;exitDy=0;exitPerimeter=0;strokeWidth=2;" parent="1" source="iTpng_MeSk9vudYiRkz9-4" target="iTpng_MeSk9vudYiRkz9-6" edge="1">
          <mxGeometry relative="1" as="geometry" />
        </mxCell>
        <mxCell id="iTpng_MeSk9vudYiRkz9-4" value="회원가입양식Page(01Join.html)" style="strokeWidth=2;html=1;shape=mxgraph.flowchart.document2;whiteSpace=wrap;size=0.25;" parent="1" vertex="1">
          <mxGeometry x="300" y="150" width="100" height="60" as="geometry" />
        </mxCell>
        <mxCell id="iTpng_MeSk9vudYiRkz9-12" value="" style="edgeStyle=orthogonalEdgeStyle;rounded=0;orthogonalLoop=1;jettySize=auto;html=1;strokeWidth=2;" parent="1" source="iTpng_MeSk9vudYiRkz9-6" target="iTpng_MeSk9vudYiRkz9-11" edge="1">
          <mxGeometry relative="1" as="geometry" />
        </mxCell>
        <mxCell id="iTpng_MeSk9vudYiRkz9-6" value="회원가입정보입력" style="shape=parallelogram;html=1;strokeWidth=2;perimeter=parallelogramPerimeter;whiteSpace=wrap;rounded=1;arcSize=12;size=0.23;" parent="1" vertex="1">
          <mxGeometry x="285" y="280" width="130" height="60" as="geometry" />
        </mxCell>
        <mxCell id="u-HaEV5tbsYmtD8eqNwH-1" value="" style="edgeStyle=orthogonalEdgeStyle;rounded=0;orthogonalLoop=1;jettySize=auto;html=1;" edge="1" parent="1" source="iTpng_MeSk9vudYiRkz9-8" target="iTpng_MeSk9vudYiRkz9-45">
          <mxGeometry relative="1" as="geometry" />
        </mxCell>
        <mxCell id="iTpng_MeSk9vudYiRkz9-8" value="회원가입처리&lt;div&gt;(02Join.jsp)&lt;/div&gt;" style="whiteSpace=wrap;html=1;strokeWidth=2;rounded=1;arcSize=12;" parent="1" vertex="1">
          <mxGeometry x="130" y="1070" width="120" height="60" as="geometry" />
        </mxCell>
        <mxCell id="iTpng_MeSk9vudYiRkz9-10" value="1. 파라미터 받기&lt;div&gt;2. 유효성 검증&lt;/div&gt;&lt;div&gt;3. 서비스처리&lt;/div&gt;&lt;div&gt;4. 뷰로 이동&lt;/div&gt;" style="text;html=1;align=left;verticalAlign=middle;whiteSpace=wrap;rounded=0;fontStyle=1;labelBorderColor=#990099;strokeWidth=3;" parent="1" vertex="1">
          <mxGeometry x="690" y="40" width="110" height="30" as="geometry" />
        </mxCell>
        <mxCell id="iTpng_MeSk9vudYiRkz9-22" value="" style="edgeStyle=orthogonalEdgeStyle;rounded=0;orthogonalLoop=1;jettySize=auto;html=1;strokeWidth=2;" parent="1" source="iTpng_MeSk9vudYiRkz9-11" target="iTpng_MeSk9vudYiRkz9-21" edge="1">
          <mxGeometry relative="1" as="geometry" />
        </mxCell>
        <mxCell id="iTpng_MeSk9vudYiRkz9-11" value="유효성 검증isvaild(dto)" style="rhombus;whiteSpace=wrap;html=1;strokeWidth=2;rounded=1;arcSize=12;" parent="1" vertex="1">
          <mxGeometry x="310" y="410" width="80" height="80" as="geometry" />
        </mxCell>
        <mxCell id="iTpng_MeSk9vudYiRkz9-14" value="" style="edgeStyle=orthogonalEdgeStyle;rounded=0;orthogonalLoop=1;jettySize=auto;html=1;exitX=1;exitY=0.5;exitDx=0;exitDy=0;entryX=1;entryY=0.4;entryDx=0;entryDy=0;entryPerimeter=0;strokeWidth=2;" parent="1" source="iTpng_MeSk9vudYiRkz9-11" target="iTpng_MeSk9vudYiRkz9-4" edge="1">
          <mxGeometry relative="1" as="geometry">
            <mxPoint x="560" y="440" as="sourcePoint" />
            <mxPoint x="560" y="510" as="targetPoint" />
            <Array as="points">
              <mxPoint x="460" y="450" />
              <mxPoint x="460" y="174" />
            </Array>
          </mxGeometry>
        </mxCell>
        <mxCell id="iTpng_MeSk9vudYiRkz9-15" value="isvalid가 유효하지 않다면" style="text;html=1;align=center;verticalAlign=middle;whiteSpace=wrap;rounded=0;labelBorderColor=default;" parent="1" vertex="1">
          <mxGeometry x="390" y="410" width="60" height="30" as="geometry" />
        </mxCell>
        <mxCell id="iTpng_MeSk9vudYiRkz9-17" value="Message" style="swimlane;fontStyle=0;childLayout=stackLayout;horizontal=1;startSize=26;horizontalStack=0;resizeParent=1;resizeParentMax=0;resizeLast=0;collapsible=1;marginBottom=0;align=center;fontSize=14;" parent="1" vertex="1">
          <mxGeometry x="470" y="294" width="130" height="116" as="geometry" />
        </mxCell>
        <mxCell id="iTpng_MeSk9vudYiRkz9-18" value="userid == &quot;유저명을 입력하세요&quot;" style="text;strokeColor=none;fillColor=none;spacingLeft=4;spacingRight=4;overflow=hidden;rotatable=0;points=[[0,0.5],[1,0.5]];portConstraint=eastwest;fontSize=12;whiteSpace=wrap;html=1;" parent="iTpng_MeSk9vudYiRkz9-17" vertex="1">
          <mxGeometry y="26" width="130" height="30" as="geometry" />
        </mxCell>
        <mxCell id="iTpng_MeSk9vudYiRkz9-19" value="Item 2" style="text;strokeColor=none;fillColor=none;spacingLeft=4;spacingRight=4;overflow=hidden;rotatable=0;points=[[0,0.5],[1,0.5]];portConstraint=eastwest;fontSize=12;whiteSpace=wrap;html=1;" parent="iTpng_MeSk9vudYiRkz9-17" vertex="1">
          <mxGeometry y="56" width="130" height="30" as="geometry" />
        </mxCell>
        <mxCell id="iTpng_MeSk9vudYiRkz9-20" value="Item 3" style="text;strokeColor=none;fillColor=none;spacingLeft=4;spacingRight=4;overflow=hidden;rotatable=0;points=[[0,0.5],[1,0.5]];portConstraint=eastwest;fontSize=12;whiteSpace=wrap;html=1;" parent="iTpng_MeSk9vudYiRkz9-17" vertex="1">
          <mxGeometry y="86" width="130" height="30" as="geometry" />
        </mxCell>
        <mxCell id="iTpng_MeSk9vudYiRkz9-24" value="" style="edgeStyle=orthogonalEdgeStyle;rounded=0;orthogonalLoop=1;jettySize=auto;html=1;strokeWidth=2;" parent="1" source="iTpng_MeSk9vudYiRkz9-21" target="iTpng_MeSk9vudYiRkz9-23" edge="1">
          <mxGeometry relative="1" as="geometry" />
        </mxCell>
        <mxCell id="iTpng_MeSk9vudYiRkz9-21" value="동일계정 유무 확인" style="whiteSpace=wrap;html=1;strokeWidth=2;rounded=1;arcSize=12;" parent="1" vertex="1">
          <mxGeometry x="290" y="600" width="120" height="60" as="geometry" />
        </mxCell>
        <mxCell id="iTpng_MeSk9vudYiRkz9-29" value="" style="edgeStyle=orthogonalEdgeStyle;rounded=0;orthogonalLoop=1;jettySize=auto;html=1;strokeWidth=2;" parent="1" source="iTpng_MeSk9vudYiRkz9-23" target="iTpng_MeSk9vudYiRkz9-28" edge="1">
          <mxGeometry relative="1" as="geometry" />
        </mxCell>
        <mxCell id="iTpng_MeSk9vudYiRkz9-23" value="tbl_user" style="strokeWidth=2;html=1;shape=mxgraph.flowchart.database;whiteSpace=wrap;" parent="1" vertex="1">
          <mxGeometry x="320" y="710" width="60" height="60" as="geometry" />
        </mxCell>
        <mxCell id="iTpng_MeSk9vudYiRkz9-25" value="isvalid가 유효하다면" style="text;html=1;align=center;verticalAlign=middle;whiteSpace=wrap;rounded=0;labelBorderColor=default;" parent="1" vertex="1">
          <mxGeometry x="285" y="510" width="60" height="30" as="geometry" />
        </mxCell>
        <mxCell id="iTpng_MeSk9vudYiRkz9-38" value="" style="edgeStyle=orthogonalEdgeStyle;rounded=0;orthogonalLoop=1;jettySize=auto;html=1;" parent="1" source="iTpng_MeSk9vudYiRkz9-28" edge="1">
          <mxGeometry relative="1" as="geometry">
            <mxPoint x="250" y="880" as="targetPoint" />
          </mxGeometry>
        </mxCell>
        <mxCell id="iTpng_MeSk9vudYiRkz9-28" value="기존 계정 존재 유무" style="rhombus;whiteSpace=wrap;html=1;strokeWidth=2;" parent="1" vertex="1">
          <mxGeometry x="310" y="840" width="80" height="80" as="geometry" />
        </mxCell>
        <mxCell id="iTpng_MeSk9vudYiRkz9-32" value="Message" style="swimlane;fontStyle=0;childLayout=stackLayout;horizontal=1;startSize=26;horizontalStack=0;resizeParent=1;resizeParentMax=0;resizeLast=0;collapsible=1;marginBottom=0;align=center;fontSize=14;" parent="1" vertex="1">
          <mxGeometry x="470" y="750" width="140" height="56" as="geometry" />
        </mxCell>
        <mxCell id="iTpng_MeSk9vudYiRkz9-35" value="&quot;기존 계정이 존재합니다&quot;" style="text;strokeColor=none;fillColor=none;spacingLeft=4;spacingRight=4;overflow=hidden;rotatable=0;points=[[0,0.5],[1,0.5]];portConstraint=eastwest;fontSize=12;whiteSpace=wrap;html=1;" parent="iTpng_MeSk9vudYiRkz9-32" vertex="1">
          <mxGeometry y="26" width="140" height="30" as="geometry" />
        </mxCell>
        <mxCell id="iTpng_MeSk9vudYiRkz9-36" value="기존 계정이 존재" style="text;html=1;align=center;verticalAlign=middle;whiteSpace=wrap;rounded=0;labelBorderColor=default;" parent="1" vertex="1">
          <mxGeometry x="390" y="850" width="60" height="30" as="geometry" />
        </mxCell>
        <mxCell id="iTpng_MeSk9vudYiRkz9-41" value="" style="edgeStyle=orthogonalEdgeStyle;rounded=0;orthogonalLoop=1;jettySize=auto;html=1;" parent="1" source="iTpng_MeSk9vudYiRkz9-39" target="iTpng_MeSk9vudYiRkz9-40" edge="1">
          <mxGeometry relative="1" as="geometry" />
        </mxCell>
        <mxCell id="iTpng_MeSk9vudYiRkz9-39" value="계정 정보 저장 처리" style="whiteSpace=wrap;html=1;strokeWidth=2;rounded=1;arcSize=12;" parent="1" vertex="1">
          <mxGeometry x="130" y="850" width="120" height="60" as="geometry" />
        </mxCell>
        <mxCell id="u-HaEV5tbsYmtD8eqNwH-2" value="" style="edgeStyle=orthogonalEdgeStyle;rounded=0;orthogonalLoop=1;jettySize=auto;html=1;" edge="1" parent="1" source="iTpng_MeSk9vudYiRkz9-40" target="iTpng_MeSk9vudYiRkz9-8">
          <mxGeometry relative="1" as="geometry" />
        </mxCell>
        <mxCell id="iTpng_MeSk9vudYiRkz9-40" value="계정 정보 저장 처리" style="whiteSpace=wrap;html=1;strokeWidth=2;rounded=1;arcSize=12;" parent="1" vertex="1">
          <mxGeometry x="130" y="980" width="120" height="60" as="geometry" />
        </mxCell>
        <mxCell id="iTpng_MeSk9vudYiRkz9-43" value="Message" style="swimlane;fontStyle=0;childLayout=stackLayout;horizontal=1;startSize=26;horizontalStack=0;resizeParent=1;resizeParentMax=0;resizeLast=0;collapsible=1;marginBottom=0;align=center;fontSize=14;" parent="1" vertex="1">
          <mxGeometry x="20" y="920" width="160" height="56" as="geometry" />
        </mxCell>
        <mxCell id="iTpng_MeSk9vudYiRkz9-44" value="&quot;회원가입이 완료되었습니다&quot;" style="text;strokeColor=none;fillColor=none;spacingLeft=4;spacingRight=4;overflow=hidden;rotatable=0;points=[[0,0.5],[1,0.5]];portConstraint=eastwest;fontSize=12;whiteSpace=wrap;html=1;" parent="iTpng_MeSk9vudYiRkz9-43" vertex="1">
          <mxGeometry y="26" width="160" height="30" as="geometry" />
        </mxCell>
        <mxCell id="iTpng_MeSk9vudYiRkz9-45" value="로그인 페이지로 리다이렉트" style="whiteSpace=wrap;html=1;strokeWidth=2;rounded=1;arcSize=12;" parent="1" vertex="1">
          <mxGeometry x="130" y="1160" width="120" height="60" as="geometry" />
        </mxCell>
        <mxCell id="iTpng_MeSk9vudYiRkz9-47" value="" style="edgeStyle=orthogonalEdgeStyle;rounded=0;orthogonalLoop=1;jettySize=auto;html=1;strokeWidth=2;exitX=1;exitY=0.5;exitDx=0;exitDy=0;entryX=1;entryY=0.5;entryDx=0;entryDy=0;entryPerimeter=0;" parent="1" source="iTpng_MeSk9vudYiRkz9-28" target="iTpng_MeSk9vudYiRkz9-4" edge="1">
          <mxGeometry relative="1" as="geometry">
            <mxPoint x="440" y="830" as="sourcePoint" />
            <mxPoint x="440" y="900" as="targetPoint" />
            <Array as="points">
              <mxPoint x="460" y="880" />
              <mxPoint x="460" y="180" />
            </Array>
          </mxGeometry>
        </mxCell>
        <mxCell id="iTpng_MeSk9vudYiRkz9-48" value="기존 계정이 존재X" style="text;html=1;align=center;verticalAlign=middle;whiteSpace=wrap;rounded=0;labelBorderColor=default;" parent="1" vertex="1">
          <mxGeometry x="250" y="850" width="60" height="30" as="geometry" />
        </mxCell>
      </root>
    </mxGraphModel>
  </diagram>
</mxfile>
